<svg width="52" height="75" viewBox="0 0 52 75" fill="none" xmlns="http://www.w3.org/2000/svg">
<rect y="12" width="52" height="51" fill="#F5855A" fill-opacity="0.7"/>
<path d="M18.875 41C18.2917 41 17.7292 40.9688 17.1875 40.9062C16.6458 40.8229 16.1667 40.6562 15.75 40.4062C15.3333 40.1354 15 39.7604 14.75 39.2812C14.5 38.7812 14.375 38.1042 14.375 37.25C14.375 36.3333 14.5 35.6146 14.75 35.0938C15 34.5729 15.3333 34.1875 15.75 33.9375C16.1667 33.6875 16.6458 33.5312 17.1875 33.4688C17.7292 33.4062 18.2917 33.375 18.875 33.375H32.6875C33.2083 33.375 33.7396 33.4062 34.2812 33.4688C34.8229 33.5312 35.3021 33.6875 35.7188 33.9375C36.1562 34.1875 36.5104 34.5729 36.7812 35.0938C37.0521 35.6146 37.1875 36.3333 37.1875 37.25C37.1875 38.1042 37.0521 38.7812 36.7812 39.2812C36.5104 39.7604 36.1562 40.1354 35.7188 40.4062C35.3021 40.6562 34.8229 40.8229 34.2812 40.9062C33.7396 40.9688 33.2083 41 32.6875 41H20.625H18.875Z" fill="white"/>
</svg>
