<svg width="52" height="67" viewBox="0 0 52 67" fill="none" xmlns="http://www.w3.org/2000/svg">
<rect y="8" width="52" height="51" fill="#F5855A" fill-opacity="0.7"/>
<path d="M19.5 37.25C18.8958 37.25 18.3229 37.2188 17.7812 37.1562C17.2396 37.0729 16.75 36.9062 16.3125 36.6562C15.8958 36.3854 15.5625 36.0104 15.3125 35.5312C15.0625 35.0312 14.9375 34.3542 14.9375 33.5C14.9375 32.5833 15.0625 31.8646 15.3125 31.3438C15.5625 30.8229 15.8958 30.4375 16.3125 30.1875C16.7292 29.9375 17.2083 29.7812 17.75 29.7188C18.2917 29.6562 18.8542 29.625 19.4375 29.625H22.5V26.5625C22.5 26.0417 22.5312 25.5104 22.5938 24.9688C22.6562 24.4271 22.8125 23.9479 23.0625 23.5312C23.3125 23.0938 23.6979 22.7396 24.2188 22.4688C24.7396 22.1979 25.4583 22.0625 26.375 22.0625C27.2083 22.0625 27.875 22.1979 28.375 22.4688C28.875 22.7396 29.25 23.0938 29.5 23.5312C29.7708 23.9479 29.9375 24.4271 30 24.9688C30.0833 25.5104 30.125 26.0417 30.125 26.5625V29.625H33.25C33.7708 29.625 34.3021 29.6562 34.8438 29.7188C35.3854 29.7812 35.8646 29.9375 36.2812 30.1875C36.7188 30.4375 37.0729 30.8229 37.3438 31.3438C37.6146 31.8646 37.75 32.5833 37.75 33.5C37.75 34.3542 37.6146 35.0312 37.3438 35.5312C37.0729 36.0104 36.7188 36.3854 36.2812 36.6562C35.8646 36.9062 35.3854 37.0729 34.8438 37.1562C34.3021 37.2188 33.7708 37.25 33.25 37.25H30.125V40.375C30.125 40.9583 30.0833 41.5208 30 42.0625C29.9375 42.6042 29.7708 43.0833 29.5 43.5C29.25 43.9167 28.875 44.25 28.375 44.5C27.875 44.75 27.2083 44.875 26.375 44.875C25.4583 44.875 24.7396 44.75 24.2188 44.5C23.6979 44.25 23.3125 43.9167 23.0625 43.5C22.8125 43.0833 22.6562 42.6042 22.5938 42.0625C22.5312 41.5208 22.5 40.9583 22.5 40.375V37.25H20.125H19.5Z" fill="white"/>
</svg>
